{"asset":{"version":"2.0","generator":"babylon.js glTF exporter for Autodesk MAYA 2024.0.1 v20250428.5"},"scene":0,"scenes":[{"nodes":[0]}],"nodes":[{"mesh":0,"name":"part1"}],"meshes":[{"primitives":[{"attributes":{"POSITION":1,"NORMAL":2},"indices":0,"material":0},{"attributes":{"POSITION":4,"NORMAL":5},"indices":3,"material":1}],"name":"part1"}],"accessors":[{"bufferView":0,"componentType":5125,"count":152778,"type":"SCALAR","name":"accessorIndices"},{"bufferView":1,"componentType":5126,"count":50606,"max":[1.88375866,2.47670412,1.88237834],"min":[-1.88375819,-2.45026469,-1.88238823],"type":"VEC3","name":"accessorPositions"},{"bufferView":1,"byteOffset":607272,"componentType":5126,"count":50606,"type":"VEC3","name":"accessorNormals"},{"bufferView":0,"byteOffset":611112,"componentType":5125,"count":341364,"type":"SCALAR","name":"accessorIndices"},{"bufferView":1,"byteOffset":1214544,"componentType":5126,"count":59669,"max":[0.6090498,0.296192676,1.28343987],"min":[-1.32496274,-1.4715966,-1.20799828],"type":"VEC3","name":"accessorPositions"},{"bufferView":1,"byteOffset":1930572,"componentType":5126,"count":59669,"type":"VEC3","name":"accessorNormals"}],"bufferViews":[{"buffer":0,"byteLength":1976568,"name":"bufferViewScalar"},{"buffer":0,"byteOffset":1976568,"byteLength":2646600,"byteStride":12,"name":"bufferViewFloatVec3"}],"buffers":[{"uri":"chair01.bin","byteLength":4623168}],"materials":[{"pbrMetallicRoughness":{"baseColorFactor":[0.4528302,0.4528302,0.4528302,1.0],"roughnessFactor":0.440251559},"name":"standardSurface3"},{"pbrMetallicRoughness":{"baseColorFactor":[0.5803,0.5543,0.4597,1.0],"metallicFactor":0.0,"roughnessFactor":0.918239},"name":"standardSurface2"}]}